<svg xmlns="http://www.w3.org/2000/svg" width="103.719" height="168" viewBox="0 0 103.719 168">
  <g id="Illustration" transform="translate(-385.308 0)">
    <path id="Path" d="M636.2,214.681a7.309,7.309,0,0,0,5.024-1.333,13.783,13.783,0,0,0,3.6-3.865,25.044,25.044,0,0,0,3.526-8.194,4.8,4.8,0,0,0,4.68,1.628c2.788-.626,4.46-3.879,3.916-6.683a8.959,8.959,0,0,0-5.471-6.154,21.134,21.134,0,0,0-8.41-1.305,16.3,16.3,0,0,0-5.574.738,6.518,6.518,0,0,0-4.02,3.71c-.394,1.113-.381,2.346-.829,3.439-.814,1.984-2.924,3.067-4.9,3.889s-4.134,1.657-5.3,3.455a6.115,6.115,0,0,0,.515,6.8,10.035,10.035,0,0,0,6.163,3.529,29.83,29.83,0,0,0,7.241.235" transform="translate(-211.389 -188.775)" fill="#3c3c3c"/>
    <path id="Path-2" d="M421.56,411.286l-7.805-3.385,4.235-8.717,6.3,3.689Z" transform="translate(-18.368 -258.307)" fill="#737373"/>
    <path id="Path-3" d="M454.3,274.409l-7.539,15.334-13.3,27.063-13.716-6.591,15.141-35.449.043-4.462.135-13.886Z" transform="translate(-22.233 -166.126)" fill="#3d3d3d"/>
    <path id="Path-4" d="M557.8,399.17l-8.016,2.85-2.85-9.263,7.125-1.6Z" transform="translate(-104.36 -253.122)" fill="#737373"/>
    <path id="Path-5" d="M694.375,353.383l-24.227-6.947,7.125-4.81,18.7,5.878,8.458,2.03a4.18,4.18,0,0,1,2.838,5.776h0a4.18,4.18,0,0,1-5.823,1.953Z" transform="translate(-242.713 -287.667)" fill="#737373"/>
    <path id="Path-6" d="M676.726,291.164l-9.8,5.7c-.865-7.129,3.4-19.819,8.729-33.668h0a10.653,10.653,0,0,1,4.308,10.061Z" transform="translate(-240.561 -236.938)" fill="#fbfbfb"/>
    <path id="Path-7" d="M559.891,344.369l-.206,7.312a4.217,4.217,0,0,1-5.306,3.955h0a4.217,4.217,0,0,1-2.743-5.828l2.733-5.973,8.551-20.308,5.878,2.138Z" transform="translate(-165.945 -275.978)" fill="#737373"/>
    <circle id="Path-8" cx="7.66" cy="7.66" r="7.66" transform="translate(426.1 3.835)" fill="#737373"/>
    <path id="Path-9" d="M505.067,51.973,496.16,47.7l4.453-9.976,7.482,1.425Z" transform="translate(-71.574 -24.356)" fill="#737373"/>
    <path id="Path-10" d="M638.044,290.153l-18.17-4.453,3.649-33.446a5.883,5.883,0,0,1,6.381-5.221l6,.546,8.194,3.741,3.028,3.206-.924,3.952c.861,8.139.2,15.2-4.535,19.393Z" transform="translate(-210.252 -226.375)" fill="#fbfbfb"/>
    <path id="Path-11" d="M588.592,278.411l-9.441-2.494,12.658-20.964a13.54,13.54,0,0,1,12.994-6.469h0l-4.81,15.854C595.546,267.694,591.81,272.517,588.592,278.411Z" transform="translate(-183.958 -227.28)" fill="#fbfbfb"/>
    <path id="Path-12" d="M654.226,429.55,639.8,433.825c-17.57-28.524-42.729-59.264-32.955-79.8l3.563-8.372,18.526,5.7L630,373.437l11.4,17.814Z" transform="translate(-200.426 -290.627)" fill="#3d3d3d"/>
    <path id="Path-13" d="M732.808,611.421l-12.823-.126a4.619,4.619,0,0,1-4.589-4.619v-6.392a1.474,1.474,0,0,1,1.91-1.414c2.316.743,4.213.5,5.643-.851.857-.807.957-.969,1.978-.382l5.789,6.324,2.348.151a3.658,3.658,0,0,1,3.412,3.377h0a3.658,3.658,0,0,1-3.668,3.931Z" transform="translate(-271.928 -453.104)" fill="#3c3c3c"/>
    <path id="Path-14" d="M574.391,623.861l-8.978-9.156a4.619,4.619,0,0,1,.021-6.511l4.52-4.52a1.473,1.473,0,0,1,2.35.351c1.113,2.163,2.629,3.329,4.592,3.388,1.177.036,1.362-.008,1.669,1.128l-.378,8.565,1.553,1.767a3.658,3.658,0,0,1,.025,4.8h0a3.658,3.658,0,0,1-5.374.186Z" transform="translate(-174.228 -456.947)" fill="#3c3c3c"/>
    <path id="Path-15" d="M656.368,202.79a9.17,9.17,0,0,0,4.445,3.668c1.3.5,2.953.626,3.929-.37a3.517,3.517,0,0,0,.748-2.836,8.875,8.875,0,0,0-5.6-7.045,12.443,12.443,0,0,0-9.223.272c-2.755,1.123-5.371,3.423-5.519,6.394-.076,1.523.475,3.2-.342,4.486a5.61,5.61,0,0,1-2.87,1.792c-1.065.429-2.208,1.106-2.427,2.234a2.5,2.5,0,0,0,.733,2.131,5.785,5.785,0,0,0,1.97,1.235,10.278,10.278,0,0,0,5.514.915,5.653,5.653,0,0,0,4.4-3.163,9.93,9.93,0,0,0,.382-4.305,7.25,7.25,0,0,1,.73-4.228c.775-1.23,2.576-1.918,3.734-1.04" transform="translate(-222.917 -193.082)" fill="#3c3c3c"/>
    <path id="Path-16" d="M24.369,0H.835A.833.833,0,0,0,.373,1.527L12.139,9.371a.832.832,0,0,0,.925,0L24.831,1.527A.833.833,0,0,0,24.369,0Z" transform="translate(456.054 45.892) rotate(-16)" fill="#3d3d3d"/>
    <path id="Path-17" d="M30.1.141,16.161,9.435a.835.835,0,0,1-.925,0L1.3.141A.834.834,0,0,0,0,.835V18.589a.833.833,0,0,0,.833.833h29.73a.833.833,0,0,0,.833-.833V.835A.834.834,0,0,0,30.1.141Z" transform="translate(453.493 48.181) rotate(-16)" fill="#3d3d3d"/>
  </g>
</svg>
